# xmcd
#
# Track frame offsets:
#	150
#	11515
#	24319
#	36240
#	48000
#	60327
#	72344
#	82679
#	95073
#	105417
#
# Disc length: 1543 seconds
#
# Revision: 1
# Processed by: cddbd v1.5.1PL0 Copyright (c) Steve Scherf et al.
# Submitted via: audiograbber 1.83.01
#
DISCID=6a06050a
DTITLE=Hank Locklin - Down Texas Way
DYEAR=1900
DGENRE=
TTITLE0=Down Texas Way
TTITLE1=Alone At A Table For Two
TTITLE2=Fifty Miles Of Elbow Room
TTITLE3=Midnight Tears
TTITLE4=The Red Rose
TTITLE5=The Same Sweet Girl
TTITLE6=Empty Bottle Empty Heart
TTITLE7=Our Love Will Show The Way
TTITLE8=Who Will It Be
TTITLE9=Tho I've Lost
EXTD=
EXTT0=
EXTT1=
EXTT2=
EXTT3=
EXTT4=
EXTT5=
EXTT6=
EXTT7=
EXTT8=
EXTT9=
PLAYORDER=
